<svg xmlns="http://www.w3.org/2000/svg" viewBox="0 0 1600 900" role="img" aria-label="Темный фон в стиле сервиса ГБО">
  <defs>
    <linearGradient id="bg" x1="0" y1="0" x2="1" y2="1">
      <stop offset="0%" stop-color="#101a2a"/>
      <stop offset="100%" stop-color="#1f2f45"/>
    </linearGradient>
    <linearGradient id="accent" x1="0" y1="0" x2="1" y2="0">
      <stop offset="0%" stop-color="#ff7c2d"/>
      <stop offset="100%" stop-color="#ffb047"/>
    </linearGradient>
    <linearGradient id="cyl" x1="0" y1="0" x2="0" y2="1">
      <stop offset="0%" stop-color="#406083"/>
      <stop offset="100%" stop-color="#223750"/>
    </linearGradient>
  </defs>

  <rect width="1600" height="900" fill="url(#bg)"/>
  <circle cx="1330" cy="160" r="260" fill="#2f4d71" opacity="0.34"/>
  <circle cx="220" cy="760" r="280" fill="#294664" opacity="0.3"/>

  <g opacity="0.95">
    <rect x="980" y="170" width="360" height="530" rx="175" fill="url(#cyl)"/>
    <rect x="1035" y="132" width="250" height="72" rx="26" fill="#6d8db0"/>
    <rect x="1120" y="82" width="80" height="62" rx="12" fill="#a8c2df"/>
    <circle cx="1160" cy="114" r="10" fill="#324d6d"/>
  </g>

  <g stroke="url(#accent)" stroke-width="8" fill="none" opacity="0.9">
    <path d="M0 270 C250 200, 470 340, 730 260 S1170 180, 1600 300"/>
    <path d="M0 640 C260 560, 500 720, 820 620 S1260 530, 1600 650"/>
  </g>

  <g opacity="0.6">
    <rect x="120" y="520" width="420" height="150" rx="40" fill="#2a3f5a"/>
    <rect x="200" y="470" width="240" height="70" rx="20" fill="#365476"/>
    <circle cx="220" cy="670" r="36" fill="#ff8e39"/>
    <circle cx="460" cy="670" r="36" fill="#ff8e39"/>
  </g>
</svg>
